<svg width="21" height="21" viewBox="0 0 21 21" fill="none" xmlns="http://www.w3.org/2000/svg">
<path d="M19.812 1.0414C19.5854 0.811319 19.2781 0.682068 18.9577 0.682068C18.6373 0.682068 18.33 0.811319 18.1034 1.0414L10.4994 8.76462L2.89534 1.0414C2.66745 0.817839 2.36222 0.694137 2.0454 0.696933C1.72858 0.699729 1.42552 0.8288 1.20148 1.05635C0.977445 1.28389 0.850366 1.59171 0.847613 1.9135C0.84486 2.23528 0.966654 2.54529 1.18676 2.77676L8.7908 10.5L1.18676 18.2232C1.07135 18.3364 0.979299 18.4718 0.915972 18.6216C0.852644 18.7713 0.819311 18.9324 0.817917 19.0953C0.816523 19.2583 0.847095 19.4199 0.907851 19.5707C0.968607 19.7215 1.05833 19.8586 1.17178 19.9738C1.28524 20.089 1.42015 20.1802 1.56865 20.2419C1.71715 20.3036 1.87626 20.3346 2.0367 20.3332C2.19715 20.3318 2.3557 20.2979 2.50312 20.2336C2.65055 20.1693 2.78388 20.0758 2.89534 19.9586L10.4994 12.2354L18.1034 19.9586C18.3313 20.1821 18.6365 20.3058 18.9534 20.303C19.2702 20.3002 19.5733 20.1712 19.7973 19.9436C20.0213 19.7161 20.1484 19.4083 20.1512 19.0865C20.1539 18.7647 20.0321 18.4547 19.812 18.2232L12.208 10.5L19.812 2.77676C20.0385 2.54661 20.1658 2.23451 20.1658 1.90908C20.1658 1.58365 20.0385 1.27154 19.812 1.0414Z" fill="#F20C10"/>
</svg>
