<svg width="70" height="70" viewBox="0 0 70 70" fill="none" xmlns="http://www.w3.org/2000/svg">
<path d="M39.7598 31.5001L48.9998 23.1001V29.9601L43.5398 35.2801L39.7598 31.5001Z" fill="#999999"/>
<path d="M21 38.7799V31.9199L39.76 49.1399V55.947L21 38.7799Z" fill="#999999"/>
<path d="M39.7598 55.9442V49.14L48.9998 40.46V47.46L39.7598 55.9442Z" fill="#999999"/>
<path d="M49 23.1L39.62 14.28L21 31.92L39.9 49.28L49 40.46L39.9 31.64L49 23.1Z" fill="#64FFFF"/>
<rect x="20.5215" y="54.8193" width="1.1245" height="1.1245" fill="#D9D9D9"/>
<rect x="21.9277" y="54.8193" width="1.1245" height="1.1245" fill="#D9D9D9"/>
<rect x="23.334" y="54.8193" width="1.1245" height="1.1245" fill="#D9D9D9"/>
<rect x="24.7383" y="54.8193" width="1.1245" height="1.1245" fill="#D9D9D9"/>
<rect x="26.1445" y="54.8193" width="1.1245" height="1.1245" fill="#D9D9D9"/>
<rect x="27.5508" y="54.8193" width="1.1245" height="1.1245" fill="#D9D9D9"/>
<rect x="28.9551" y="54.8193" width="1.1245" height="1.1245" fill="#D9D9D9"/>
<rect x="30.3613" y="54.8193" width="1.1245" height="1.1245" fill="#D9D9D9"/>
<path d="M31.719 54.8193H19.959V55.9393H31.719V54.8193Z" fill="#64FFFF"/>
</svg>
