<svg version="1.1" id="Layer_1" xmlns="http://www.w3.org/2000/svg" xmlns:xlink="http://www.w3.org/1999/xlink" x="0px" y="0px"
	 width="100%" viewBox="0 0 179 173" enable-background="new 0 0 179 173" xml:space="preserve">
<path fill="#000000" opacity="1.000000" stroke="none" 
	d="
M180.000000,56.000000 
	C180.000000,56.750000 180.000000,57.500000 179.593445,58.682476 
	C177.661255,62.877514 176.125214,66.640854 180.000000,70.000000 
	C180.000000,70.750000 180.000000,71.500000 179.651245,72.632217 
	C178.492065,73.493439 177.681610,73.972450 176.871170,74.451462 
	C177.030472,74.744034 177.189774,75.036613 177.349075,75.329185 
	C178.232712,75.219460 179.116364,75.109726 180.000000,75.000000 
	C180.000000,107.930122 180.000000,140.860245 180.000000,174.000000 
	C144.312714,174.000000 108.625015,174.000000 72.468277,173.596222 
	C71.757767,166.516006 76.607048,165.969055 81.730110,165.418854 
	C75.262337,164.803452 73.307907,160.996521 73.679123,155.106033 
	C72.182457,160.461349 69.838982,164.506973 63.171490,163.076431 
	C71.000198,166.225586 71.000198,166.225586 71.000000,174.000000 
	C47.696030,174.000000 24.392063,174.000000 1.044047,174.000000 
	C1.044047,116.435303 1.044047,58.870556 1.044047,1.000000 
	C35.686962,1.000000 70.374825,1.000000 105.887962,1.335864 
	C106.095169,2.077350 105.528526,2.682547 104.850929,2.857136 
	C99.246880,4.301065 93.400742,5.089878 88.042221,7.153090 
	C64.677727,16.149218 47.370483,31.331387 40.630070,56.318325 
	C37.071846,69.508789 38.992527,82.184998 45.895615,94.075470 
	C45.680199,95.173286 45.781464,96.121117 45.882729,97.068939 
	C46.343906,96.471611 46.805084,95.874290 47.548042,95.492111 
	C53.972820,100.940529 60.115818,106.173798 66.168884,111.780365 
	C66.414886,112.779747 66.750809,113.405838 67.199051,114.389954 
	C68.309479,117.975769 69.307594,121.203560 70.580635,125.320427 
	C83.604568,131.434616 89.738960,132.897095 96.869690,131.543854 
	C94.637428,130.799545 90.914101,130.690094 89.492950,128.825745 
	C87.212578,125.834236 86.455803,121.681313 85.522850,118.011719 
	C92.439926,117.855522 99.046265,118.540390 105.301819,117.362419 
	C114.647530,115.602539 123.746262,112.531067 133.048889,110.364716 
	C134.669022,114.988838 138.818466,118.577087 136.340408,125.217758 
	C140.054474,122.817528 142.991119,120.919701 146.223846,118.922394 
	C147.026428,118.181961 147.532974,117.541000 148.409790,116.951126 
	C156.425064,113.829002 161.000229,107.386497 165.624649,102.408760 
	C163.984024,101.393471 162.484329,100.974892 161.900757,100.005051 
	C160.384323,97.484886 159.270462,94.722481 157.995483,91.768509 
	C157.983582,91.288460 157.972137,91.096642 158.081909,90.591835 
	C161.523849,85.152504 165.040909,80.141060 168.122559,74.874825 
	C173.748657,65.260300 174.521408,54.215393 173.812561,43.796642 
	C173.358459,37.122261 168.770569,30.272491 164.737198,24.392073 
	C155.984161,11.630727 142.871201,5.576608 127.956497,2.920506 
	C126.890800,2.730720 125.981842,1.660722 125.000000,0.999998 
	C143.258759,1.000000 161.517502,1.000000 180.000000,1.000000 
	C180.000000,18.353586 180.000000,35.708134 179.647430,53.530079 
	C178.678284,54.353252 178.061691,54.709030 177.445114,55.064804 
	C178.296738,55.376537 179.148376,55.688267 180.000000,56.000000 
M10.105848,97.770096 
	C8.287442,98.714348 6.469036,99.658607 5.285270,100.273308 
	C7.134578,102.825150 9.042053,105.457260 10.525672,107.504486 
	C12.844473,105.814529 15.443852,103.920082 17.455593,102.453911 
	C15.749927,100.050896 13.904281,97.450676 12.048259,94.835838 
	C11.609568,95.567070 11.102026,96.413063 10.105848,97.770096 
M171.556686,92.932327 
	C172.194611,91.522171 172.832520,90.112007 173.470428,88.701851 
	C173.101257,88.574913 172.732086,88.447983 172.362930,88.321045 
	C171.364258,90.357422 170.365601,92.393791 169.366943,94.430161 
	C169.635925,94.578011 169.904922,94.725861 170.173904,94.873711 
	C170.530548,94.415642 170.887192,93.957581 171.556686,92.932327 
M108.078896,131.803345 
	C109.240082,131.688614 110.401268,131.573898 111.562454,131.459183 
	C111.414413,130.912476 111.266373,130.365768 111.118324,129.819061 
	C109.926903,130.325226 108.735481,130.831390 108.078896,131.803345 
M176.218658,51.149586 
	C176.702225,51.111568 177.185806,51.073555 177.669373,51.035538 
	C177.503967,50.626816 177.338562,50.218094 177.173172,49.809361 
	C176.798187,50.068512 176.423203,50.327663 176.218658,51.149586 
M116.794617,129.360489 
	C116.745384,129.730560 116.696159,130.100647 116.646935,130.470718 
	C116.911682,130.473175 117.176430,130.475632 117.441177,130.478088 
	C117.399780,130.106155 117.358383,129.734207 116.794617,129.360489 
M176.969727,79.354744 
	C177.126694,79.095222 177.283676,78.835701 177.440659,78.576180 
	C177.171005,78.481018 176.901367,78.385857 176.631729,78.290695 
	C176.589493,78.677223 176.547272,79.063759 176.969727,79.354744 
M174.224304,85.085693 
	C174.596252,85.057556 174.968185,85.029419 175.340134,85.001282 
	C175.261169,84.740509 175.182205,84.479736 175.103226,84.218964 
	C174.830139,84.348122 174.557053,84.477272 174.224304,85.085693 
M176.111374,81.276230 
	C175.831299,81.539711 175.545624,81.798019 175.285049,82.079552 
	C175.269516,82.096336 175.455124,82.299248 175.547134,82.415535 
	C175.841888,82.138443 176.136627,81.861359 176.111374,81.276230 
M131.112366,125.275146 
	C130.831696,125.539062 130.545578,125.797913 130.284348,126.079834 
	C130.269119,126.096252 130.455353,126.299370 130.547836,126.415604 
	C130.842773,126.138405 131.137711,125.861206 131.112366,125.275146 
M56.158653,114.265488 
	C56.416241,114.266296 56.673828,114.267105 56.931416,114.267914 
	C56.920399,114.106003 56.933777,113.811157 56.894371,113.803925 
	C56.652294,113.759499 56.398281,113.780090 56.158653,114.265488 
M121.522606,128.591568 
	C121.464073,128.824188 121.405548,129.056824 121.347015,129.289444 
	C121.493256,129.139328 121.639496,128.989212 121.522606,128.591568 
M66.157211,122.227921 
	C66.379807,122.225708 66.602409,122.223495 66.825005,122.221275 
	C66.823112,122.075394 66.837540,121.805435 66.816811,121.802704 
	C66.596436,121.773712 66.370476,121.787155 66.157211,122.227921 
M62.236046,118.800026 
	C62.361004,118.969704 62.485966,119.139374 62.610928,119.309052 
	C62.583984,119.071877 62.557041,118.834694 62.236046,118.800026 
M59.538795,116.493362 
	C59.276630,116.349442 59.022778,116.182487 58.744865,116.082199 
	C58.693035,116.063499 58.544643,116.312355 58.440815,116.437737 
	C58.698292,116.577560 58.955769,116.717384 59.538795,116.493362 
M52.157612,109.242912 
	C52.391617,109.240868 52.625618,109.238823 52.859623,109.236778 
	C52.856026,109.084503 52.870720,108.803528 52.845978,108.800026 
	C52.618519,108.767693 52.384232,108.783432 52.157612,109.242912 
M50.169754,106.231392 
	C50.391876,106.229240 50.613995,106.227089 50.836117,106.224937 
	C50.833771,106.079605 50.848274,105.810997 50.826462,105.808022 
	C50.609341,105.778336 50.386234,105.792488 50.169754,106.231392 
M168.459808,97.523865 
	C168.243698,97.410278 168.035141,97.272629 167.805984,97.200500 
	C167.750595,97.183067 167.627045,97.382248 167.534851,97.481827 
	C167.750732,97.595657 167.966599,97.709496 168.459808,97.523865 
z"/>
<path fill="#EFF2F8" opacity="1.000000" stroke="none" 
	d="
M124.531731,0.999998 
	C125.981842,1.660722 126.890800,2.730720 127.956497,2.920506 
	C142.871201,5.576608 155.984161,11.630727 164.737198,24.392073 
	C168.770569,30.272491 173.358459,37.122261 173.812561,43.796642 
	C174.521408,54.215393 173.748657,65.260300 168.122559,74.874825 
	C165.040909,80.141060 161.523849,85.152504 157.785507,90.679672 
	C157.227600,91.453629 157.087326,91.826736 156.793625,92.483002 
	C152.803101,96.166733 148.966003,99.567307 144.771179,102.856926 
	C141.626358,104.455292 138.839294,106.164619 135.990906,108.233406 
	C134.936401,109.067764 133.943222,109.542656 132.950058,110.017548 
	C123.746262,112.531067 114.647530,115.602539 105.301819,117.362419 
	C99.046265,118.540390 92.439926,117.855522 85.167564,117.982376 
	C79.193611,116.625290 74.042641,115.290047 69.011177,113.598892 
	C68.173386,112.630997 67.216103,112.019035 66.258812,111.407074 
	C60.115818,106.173798 53.972820,100.940529 47.500259,95.258392 
	C46.851227,94.514854 46.531757,94.220169 46.212292,93.925484 
	C38.992527,82.184998 37.071846,69.508789 40.630070,56.318325 
	C47.370483,31.331387 64.677727,16.149218 88.042221,7.153090 
	C93.400742,5.089878 99.246880,4.301065 104.850929,2.857136 
	C105.528526,2.682547 106.095169,2.077350 106.356621,1.335864 
	C112.021156,1.000000 118.042305,1.000000 124.531731,0.999998 
M70.038818,101.980392 
	C74.780746,103.851860 79.446663,105.953133 84.278923,107.551514 
	C98.508377,112.258232 112.287453,109.978355 125.623901,104.109543 
	C134.926559,100.015846 142.556183,93.651596 149.479156,86.181740 
	C157.067062,77.994400 162.484665,68.797821 163.904465,57.752190 
	C166.152771,40.260727 155.372330,24.531456 140.855743,17.061867 
	C136.827576,14.989159 132.410751,13.671789 127.821007,11.278257 
	C98.928146,3.342002 61.400547,22.653608 51.094925,50.761307 
	C43.730179,70.848015 49.842884,90.245201 67.268303,101.899765 
	C67.755371,102.225517 68.629272,101.972885 70.038818,101.980392 
z"/>
<path fill="#FFFFFF" opacity="1.000000" stroke="none" 
	d="
M71.250000,174.000000 
	C71.000198,166.225586 71.000198,166.225586 63.171490,163.076431 
	C69.838982,164.506973 72.182457,160.461349 73.679123,155.106033 
	C73.307907,160.996521 75.262337,164.803452 81.730110,165.418854 
	C76.607048,165.969055 71.757767,166.516006 71.999619,173.596222 
	C72.000000,174.000000 71.500000,174.000000 71.250000,174.000000 
z"/>
<path fill="#0C0C0C" opacity="1.000000" stroke="none" 
	d="
M180.000000,69.541931 
	C176.125214,66.640854 177.661255,62.877514 179.593445,59.057476 
	C180.000000,62.361286 180.000000,65.722572 180.000000,69.541931 
z"/>
<path fill="#0C0C0C" opacity="1.000000" stroke="none" 
	d="
M180.000000,74.666672 
	C179.116364,75.109726 178.232712,75.219460 177.349075,75.329185 
	C177.189774,75.036613 177.030472,74.744034 176.871170,74.451462 
	C177.681610,73.972450 178.492065,73.493439 179.651245,73.007217 
	C180.000000,73.444443 180.000000,73.888893 180.000000,74.666672 
z"/>
<path fill="#0C0C0C" opacity="1.000000" stroke="none" 
	d="
M180.000000,55.666668 
	C179.148376,55.688267 178.296738,55.376537 177.445114,55.064804 
	C178.061691,54.709030 178.678284,54.353252 179.647430,53.998737 
	C180.000000,54.444447 180.000000,54.888889 180.000000,55.666668 
z"/>
<path fill="#F9F9F9" opacity="1.000000" stroke="none" 
	d="
M145.128922,102.967888 
	C148.966003,99.567307 152.803101,96.166733 157.068192,92.537643 
	C157.662766,92.224991 157.829361,92.140869 157.995941,92.056740 
	C159.270462,94.722481 160.384323,97.484886 161.900757,100.005051 
	C162.484329,100.974892 163.984024,101.393471 165.624649,102.408760 
	C161.000229,107.386497 156.425064,113.829002 148.553467,116.594604 
	C148.289093,114.790176 148.524475,113.316826 148.158783,112.011909 
	C147.301910,108.954338 146.157135,105.977448 145.128922,102.967888 
z"/>
<path fill="#F9F9F9" opacity="1.000000" stroke="none" 
	d="
M68.891678,113.954811 
	C74.042641,115.290047 79.193611,116.625290 84.699860,117.989868 
	C86.455803,121.681313 87.212578,125.834236 89.492950,128.825745 
	C90.914101,130.690094 94.637428,130.799545 96.869690,131.543854 
	C89.738960,132.897095 83.604568,131.434616 70.580635,125.320427 
	C69.307594,121.203560 68.309479,117.975769 67.500687,114.372498 
	C68.090561,113.982941 68.491119,113.968880 68.891678,113.954811 
z"/>
<path fill="#F7F7F7" opacity="1.000000" stroke="none" 
	d="
M133.048889,110.364716 
	C133.943222,109.542656 134.936401,109.067764 136.432434,108.314423 
	C139.448059,106.912155 140.937988,107.481026 141.903793,110.297409 
	C142.937271,113.311134 144.561432,116.122307 145.927780,119.021881 
	C142.991119,120.919701 140.054474,122.817528 136.340408,125.217758 
	C138.818466,118.577087 134.669022,114.988838 133.048889,110.364716 
z"/>
<path fill="#141414" opacity="1.000000" stroke="none" 
	d="
M146.223846,118.922394 
	C144.561432,116.122307 142.937271,113.311134 141.903793,110.297409 
	C140.937988,107.481026 139.448059,106.912155 136.493774,107.954964 
	C138.839294,106.164619 141.626358,104.455292 144.771179,102.856926 
	C146.157135,105.977448 147.301910,108.954338 148.158783,112.011909 
	C148.524475,113.316826 148.289093,114.790176 148.183167,116.543518 
	C147.532974,117.541000 147.026428,118.181961 146.223846,118.922394 
z"/>
<path fill="#E5E5E5" opacity="1.000000" stroke="none" 
	d="
M10.350166,97.514572 
	C11.102026,96.413063 11.609568,95.567070 12.048259,94.835838 
	C13.904281,97.450676 15.749927,100.050896 17.455593,102.453911 
	C15.443852,103.920082 12.844473,105.814529 10.525672,107.504486 
	C9.042053,105.457260 7.134578,102.825150 5.285270,100.273308 
	C6.469036,99.658607 8.287442,98.714348 10.350166,97.514572 
z"/>
<path fill="#0C0C0C" opacity="1.000000" stroke="none" 
	d="
M171.400269,93.215927 
	C170.887192,93.957581 170.530548,94.415642 170.173904,94.873711 
	C169.904922,94.725861 169.635925,94.578011 169.366943,94.430161 
	C170.365601,92.393791 171.364258,90.357422 172.362930,88.321045 
	C172.732086,88.447983 173.101257,88.574913 173.470428,88.701851 
	C172.832520,90.112007 172.194611,91.522171 171.400269,93.215927 
z"/>
<path fill="#050505" opacity="1.000000" stroke="none" 
	d="
M107.811478,131.570450 
	C108.735481,130.831390 109.926903,130.325226 111.118324,129.819061 
	C111.266373,130.365768 111.414413,130.912476 111.562454,131.459183 
	C110.401268,131.573898 109.240082,131.688614 107.811478,131.570450 
z"/>
<path fill="#131313" opacity="1.000000" stroke="none" 
	d="
M45.895615,94.075470 
	C46.531757,94.220169 46.851227,94.514854 47.218475,95.043251 
	C46.805084,95.874290 46.343906,96.471611 45.882729,97.068939 
	C45.781464,96.121117 45.680199,95.173286 45.895615,94.075470 
z"/>
<path fill="#131313" opacity="1.000000" stroke="none" 
	d="
M69.011177,113.598892 
	C68.491119,113.968880 68.090561,113.982941 67.388367,114.014465 
	C66.750809,113.405838 66.414886,112.779747 66.168884,111.780365 
	C67.216103,112.019035 68.173386,112.630997 69.011177,113.598892 
z"/>
<path fill="#0C0C0C" opacity="1.000000" stroke="none" 
	d="
M176.133453,50.868202 
	C176.423203,50.327663 176.798187,50.068512 177.173172,49.809364 
	C177.338562,50.218094 177.503967,50.626816 177.669373,51.035538 
	C177.185806,51.073555 176.702225,51.111568 176.133453,50.868202 
z"/>
<path fill="#050505" opacity="1.000000" stroke="none" 
	d="
M117.055801,129.361389 
	C117.358383,129.734207 117.399780,130.106155 117.441177,130.478088 
	C117.176430,130.475632 116.911682,130.473175 116.646935,130.470718 
	C116.696159,130.100647 116.745384,129.730560 117.055801,129.361389 
z"/>
<path fill="#0C0C0C" opacity="1.000000" stroke="none" 
	d="
M176.737396,79.402512 
	C176.547272,79.063759 176.589493,78.677223 176.631714,78.290695 
	C176.901367,78.385857 177.171005,78.481018 177.440659,78.576180 
	C177.283676,78.835701 177.126694,79.095222 176.737396,79.402512 
z"/>
<path fill="#0C0C0C" opacity="1.000000" stroke="none" 
	d="
M174.254135,84.846062 
	C174.557053,84.477272 174.830139,84.348122 175.103226,84.218964 
	C175.182205,84.479736 175.261169,84.740509 175.340134,85.001282 
	C174.968185,85.029419 174.596252,85.057556 174.254135,84.846062 
z"/>
<path fill="#0C0C0C" opacity="1.000000" stroke="none" 
	d="
M176.271378,81.430252 
	C176.136627,81.861359 175.841888,82.138443 175.547134,82.415535 
	C175.455124,82.299248 175.269516,82.096336 175.285049,82.079552 
	C175.545624,81.798019 175.831299,81.539711 176.271378,81.430252 
z"/>
<path fill="#050505" opacity="1.000000" stroke="none" 
	d="
M131.272491,125.429573 
	C131.137711,125.861206 130.842773,126.138405 130.547836,126.415604 
	C130.455353,126.299370 130.269119,126.096252 130.284348,126.079834 
	C130.545578,125.797913 130.831696,125.539062 131.272491,125.429573 
z"/>
<path fill="#131313" opacity="1.000000" stroke="none" 
	d="
M56.153450,114.022263 
	C56.398281,113.780090 56.652294,113.759499 56.894371,113.803925 
	C56.933777,113.811157 56.920399,114.106003 56.931416,114.267914 
	C56.673828,114.267105 56.416241,114.266296 56.153450,114.022263 
z"/>
<path fill="#050505" opacity="1.000000" stroke="none" 
	d="
M121.654175,128.715332 
	C121.639496,128.989212 121.493256,129.139328 121.347015,129.289444 
	C121.405548,129.056824 121.464073,128.824188 121.654175,128.715332 
z"/>
<path fill="#131313" opacity="1.000000" stroke="none" 
	d="
M66.151634,122.008423 
	C66.370476,121.787155 66.596436,121.773712 66.816811,121.802704 
	C66.837540,121.805435 66.823112,122.075394 66.825005,122.221275 
	C66.602409,122.223495 66.379807,122.225708 66.151634,122.008423 
z"/>
<path fill="#131313" opacity="1.000000" stroke="none" 
	d="
M62.383072,118.698776 
	C62.557041,118.834694 62.583984,119.071877 62.610928,119.309052 
	C62.485966,119.139374 62.361004,118.969704 62.383072,118.698776 
z"/>
<path fill="#131313" opacity="1.000000" stroke="none" 
	d="
M59.376019,116.675285 
	C58.955769,116.717384 58.698292,116.577560 58.440815,116.437737 
	C58.544643,116.312355 58.693035,116.063499 58.744865,116.082199 
	C59.022778,116.182487 59.276630,116.349442 59.376019,116.675285 
z"/>
<path fill="#131313" opacity="1.000000" stroke="none" 
	d="
M52.154770,109.014038 
	C52.384232,108.783432 52.618519,108.767693 52.845978,108.800026 
	C52.870720,108.803528 52.856026,109.084503 52.859623,109.236778 
	C52.625618,109.238823 52.391617,109.240868 52.154770,109.014038 
z"/>
<path fill="#131313" opacity="1.000000" stroke="none" 
	d="
M50.167282,106.012833 
	C50.386234,105.792488 50.609341,105.778336 50.826462,105.808022 
	C50.848274,105.810997 50.833771,106.079605 50.836117,106.224937 
	C50.613995,106.227089 50.391876,106.229240 50.167282,106.012833 
z"/>
<path fill="#0C0C0C" opacity="1.000000" stroke="none" 
	d="
M168.321136,97.673599 
	C167.966599,97.709496 167.750732,97.595657 167.534851,97.481827 
	C167.627045,97.382248 167.750595,97.183067 167.805984,97.200500 
	C168.035141,97.272629 168.243698,97.410278 168.321136,97.673599 
z"/>
<path fill="#0C0C0C" opacity="1.000000" stroke="none" 
	d="
M157.995483,91.768509 
	C157.829361,92.140869 157.662766,92.224991 157.221619,92.254486 
	C157.087326,91.826736 157.227600,91.453629 157.664276,90.992676 
	C157.972137,91.096642 157.983582,91.288460 157.995483,91.768509 
z"/>
<path fill="#FDFDFD" opacity="1.000000" stroke="none" 
	d="
M128.172241,12.007874 
	C132.410751,13.671789 136.827576,14.989159 140.855743,17.061867 
	C155.372330,24.531456 166.152771,40.260727 163.904465,57.752190 
	C162.484665,68.797821 157.067062,77.994400 149.479156,86.181740 
	C142.556183,93.651596 134.926559,100.015846 125.623901,104.109543 
	C112.287453,109.978355 98.508377,112.258232 84.278923,107.551514 
	C79.446663,105.953133 74.780746,103.851860 69.516037,101.676834 
	C68.484985,100.727341 68.046799,100.007950 67.458145,99.446236 
	C53.815937,86.428055 50.790298,70.945801 56.996864,53.474354 
	C65.956482,28.253088 97.623817,9.373652 124.682953,12.884067 
	C125.789536,13.027624 127.006630,12.319303 128.172241,12.007874 
M88.653381,63.808529 
	C93.529831,70.704872 98.406273,77.601212 103.445000,84.727051 
	C108.695183,81.559044 113.719002,78.527626 118.953659,75.368988 
	C115.248161,70.034760 111.782295,65.045509 108.174034,59.851254 
	C115.036568,55.673733 121.474144,51.754898 127.963409,47.804604 
	C124.994011,43.606617 122.320229,39.826565 119.489037,35.823963 
	C113.492592,39.393879 107.668076,42.834511 101.870720,46.320316 
	C95.928375,49.893299 90.012604,53.510490 84.014969,57.150967 
	C85.581009,59.419834 86.892830,61.320400 88.653381,63.808529 
M88.783745,83.116829 
	C90.400093,82.909851 92.016441,82.702873 93.632790,82.495895 
	C93.577148,81.970047 93.521500,81.444191 93.465851,80.918343 
	C87.725388,80.719467 81.971329,78.311966 76.241432,79.830780 
	C76.229065,80.432518 76.216698,81.034264 76.204330,81.636002 
	C80.120888,82.109352 84.037437,82.582710 88.783745,83.116829 
z"/>
<path fill="#0D0D0D" opacity="1.000000" stroke="none" 
	d="
M127.996628,11.643064 
	C127.006630,12.319303 125.789536,13.027624 124.682953,12.884067 
	C97.623817,9.373652 65.956482,28.253088 56.996864,53.474354 
	C50.790298,70.945801 53.815937,86.428055 67.458145,99.446236 
	C68.046799,100.007950 68.484985,100.727341 69.158028,101.681610 
	C68.629272,101.972885 67.755371,102.225517 67.268303,101.899765 
	C49.842884,90.245201 43.730179,70.848015 51.094925,50.761307 
	C61.400547,22.653608 98.928146,3.342002 127.996628,11.643064 
z"/>
<path fill="#050505" opacity="1.000000" stroke="none" 
	d="
M88.429016,63.514748 
	C86.892830,61.320400 85.581009,59.419834 84.014969,57.150967 
	C90.012604,53.510490 95.928375,49.893299 101.870720,46.320316 
	C107.668076,42.834511 113.492592,39.393879 119.489037,35.823963 
	C122.320229,39.826565 124.994011,43.606617 127.963409,47.804604 
	C121.474144,51.754898 115.036568,55.673733 108.174034,59.851254 
	C111.782295,65.045509 115.248161,70.034760 118.953659,75.368988 
	C113.719002,78.527626 108.695183,81.559044 103.445000,84.727051 
	C98.406273,77.601212 93.529831,70.704872 88.429016,63.514748 
z"/>
<path fill="#1E1E1E" opacity="1.000000" stroke="none" 
	d="
M88.368866,83.086441 
	C84.037437,82.582710 80.120888,82.109352 76.204330,81.636002 
	C76.216698,81.034264 76.229065,80.432518 76.241432,79.830780 
	C81.971329,78.311966 87.725388,80.719467 93.465851,80.918343 
	C93.521500,81.444191 93.577148,81.970047 93.632790,82.495895 
	C92.016441,82.702873 90.400093,82.909851 88.368866,83.086441 
z"/>
</svg>