<svg width="25" height="25" viewBox="0 0 25 25" fill="none" xmlns="http://www.w3.org/2000/svg">
<path d="M24.5279 0.343677C24.1015 -0.0538243 23.4317 -0.110699 22.7391 0.194927H22.738C22.0096 0.516177 2.12018 9.8937 1.3105 10.2768C1.16323 10.3331 -0.122925 10.8606 0.00955743 12.0356C0.127825 13.095 1.16153 13.5337 1.28776 13.5843L6.34427 15.4875C6.67974 16.715 7.91643 21.2437 8.18992 22.2112C8.3605 22.8144 8.63854 23.6069 9.12583 23.77C9.55341 23.9512 9.97872 23.7856 10.2539 23.5481L13.3454 20.3962L18.3359 24.6744L18.4548 24.7525C18.7936 24.9175 19.1183 25 19.4282 25C19.6676 25 19.8973 24.9506 20.1168 24.8519C20.8645 24.5144 21.1635 23.7312 21.1948 23.6425L24.9225 2.34431C25.15 1.2068 24.8338 0.628053 24.5279 0.343677ZM10.8038 16.2487L9.09797 21.2487L7.39218 14.9987L20.4699 4.37369L10.8038 16.2487Z" fill="#F9F7F7"/>
</svg>
